<svg id="SvgjsSvg1006" width="748.5" height="912" xmlns="http://www.w3.org/2000/svg" version="1.1" xmlns:xlink="http://www.w3.org/1999/xlink" xmlns:svgjs="http://svgjs.com/svgjs"><defs id="SvgjsDefs1007"><marker id="SvgjsMarker1024" markerWidth="14" markerHeight="10" refX="10" refY="5" viewBox="0 0 14 10" orient="auto" markerUnits="userSpaceOnUse" stroke-dasharray="0,0"><path id="SvgjsPath1025" d="M0,0 L14,5 L0,10 L0,0" fill="#323232" stroke="#323232" stroke-width="1"></path></marker><marker id="SvgjsMarker1034" markerWidth="14" markerHeight="10" refX="10" refY="5" viewBox="0 0 14 10" orient="auto" markerUnits="userSpaceOnUse" stroke-dasharray="0,0"><path id="SvgjsPath1035" d="M0,0 L14,5 L0,10 L0,0" fill="#323232" stroke="#323232" stroke-width="1"></path></marker><marker id="SvgjsMarker1044" markerWidth="14" markerHeight="10" refX="10" refY="5" viewBox="0 0 14 10" orient="auto" markerUnits="userSpaceOnUse" stroke-dasharray="0,0"><path id="SvgjsPath1045" d="M0,0 L14,5 L0,10 L0,0" fill="#323232" stroke="#323232" stroke-width="1"></path></marker><marker id="SvgjsMarker1052" markerWidth="14" markerHeight="10" refX="10" refY="5" viewBox="0 0 14 10" orient="auto" markerUnits="userSpaceOnUse" stroke-dasharray="0,0"><path id="SvgjsPath1053" d="M0,0 L14,5 L0,10 L0,0" fill="#323232" stroke="#323232" stroke-width="1"></path></marker><marker id="SvgjsMarker1062" markerWidth="14" markerHeight="10" refX="10" refY="5" viewBox="0 0 14 10" orient="auto" markerUnits="userSpaceOnUse" stroke-dasharray="0,0"><path id="SvgjsPath1063" d="M0,0 L14,5 L0,10 L0,0" fill="#323232" stroke="#323232" stroke-width="1"></path></marker><marker id="SvgjsMarker1072" markerWidth="14" markerHeight="10" refX="10" refY="5" viewBox="0 0 14 10" orient="auto" markerUnits="userSpaceOnUse" stroke-dasharray="0,0"><path id="SvgjsPath1073" d="M0,0 L14,5 L0,10 L0,0" fill="#323232" stroke="#323232" stroke-width="1"></path></marker><marker id="SvgjsMarker1080" markerWidth="14" markerHeight="10" refX="10" refY="5" viewBox="0 0 14 10" orient="auto" markerUnits="userSpaceOnUse" stroke-dasharray="0,0"><path id="SvgjsPath1081" d="M0,0 L14,5 L0,10 L0,0" fill="#323232" stroke="#323232" stroke-width="1"></path></marker><marker id="SvgjsMarker1090" markerWidth="14" markerHeight="10" refX="10" refY="5" viewBox="0 0 14 10" orient="auto" markerUnits="userSpaceOnUse" stroke-dasharray="0,0"><path id="SvgjsPath1091" d="M0,0 L14,5 L0,10 L0,0" fill="#323232" stroke="#323232" stroke-width="1"></path></marker><marker id="SvgjsMarker1100" markerWidth="14" markerHeight="10" refX="10" refY="5" viewBox="0 0 14 10" orient="auto" markerUnits="userSpaceOnUse" stroke-dasharray="0,0"><path id="SvgjsPath1101" d="M0,0 L14,5 L0,10 L0,0" fill="#323232" stroke="#323232" stroke-width="1"></path></marker><marker id="SvgjsMarker1108" markerWidth="14" markerHeight="10" refX="10" refY="5" viewBox="0 0 14 10" orient="auto" markerUnits="userSpaceOnUse" stroke-dasharray="0,0"><path id="SvgjsPath1109" d="M0,0 L14,5 L0,10 L0,0" fill="#323232" stroke="#323232" stroke-width="1"></path></marker><marker id="SvgjsMarker1116" markerWidth="14" markerHeight="10" refX="10" refY="5" viewBox="0 0 14 10" orient="auto" markerUnits="userSpaceOnUse" stroke-dasharray="0,0"><path id="SvgjsPath1117" d="M0,0 L14,5 L0,10 L0,0" fill="#323232" stroke="#323232" stroke-width="1"></path></marker><marker id="SvgjsMarker1126" markerWidth="14" markerHeight="10" refX="10" refY="5" viewBox="0 0 14 10" orient="auto" markerUnits="userSpaceOnUse" stroke-dasharray="0,0"><path id="SvgjsPath1127" d="M0,0 L14,5 L0,10 L0,0" fill="#323232" stroke="#323232" stroke-width="1"></path></marker><marker id="SvgjsMarker1136" markerWidth="14" markerHeight="10" refX="10" refY="5" viewBox="0 0 14 10" orient="auto" markerUnits="userSpaceOnUse" stroke-dasharray="0,0"><path id="SvgjsPath1137" d="M0,0 L14,5 L0,10 L0,0" fill="#323232" stroke="#323232" stroke-width="1"></path></marker><marker id="SvgjsMarker1144" markerWidth="14" markerHeight="10" refX="10" refY="5" viewBox="0 0 14 10" orient="auto" markerUnits="userSpaceOnUse" stroke-dasharray="0,0"><path id="SvgjsPath1145" d="M0,0 L14,5 L0,10 L0,0" fill="#323232" stroke="#323232" stroke-width="1"></path></marker></defs><g id="SvgjsG1008" transform="translate(25,25)"><path id="SvgjsPath1009" d="M 62 30L 62 862" stroke-dasharray="3,4" stroke="rgba(50,50,50,1)" stroke-width="2" fill="none"></path><path id="SvgjsPath1010" d="M 0 0L 124 0L 124 30L 0 30Z" stroke="rgba(50,50,50,1)" stroke-width="2" fill-opacity="1" fill="#2196f3"></path><g id="SvgjsG1011"><text id="SvgjsText1012" font-family="微软雅黑" text-anchor="middle" font-size="13px" width="104px" fill="#323232" font-weight="400" align="middle" lineHeight="125%" anchor="middle" family="微软雅黑" size="13px" weight="400" font-style="" opacity="1" y="5.375" transform="rotate(0)"><tspan id="SvgjsTspan1013" dy="16" x="62"><tspan id="SvgjsTspan1014" style="text-decoration:;">前端</tspan></tspan></text></g></g><g id="SvgjsG1015" transform="translate(494,25)"><path id="SvgjsPath1016" d="M 61 30L 61 862" stroke-dasharray="3,4" stroke="rgba(50,50,50,1)" stroke-width="2" fill="none"></path><path id="SvgjsPath1017" d="M 0 0L 122 0L 122 30L 0 30Z" stroke="rgba(50,50,50,1)" stroke-width="2" fill-opacity="1" fill="#ff9800"></path><g id="SvgjsG1018"><text id="SvgjsText1019" font-family="微软雅黑" text-anchor="middle" font-size="13px" width="102px" fill="#323232" font-weight="400" align="middle" lineHeight="125%" anchor="middle" family="微软雅黑" size="13px" weight="400" font-style="" opacity="1" y="5.375" transform="rotate(0)"><tspan id="SvgjsTspan1020" dy="16" x="61"><tspan id="SvgjsTspan1021" style="text-decoration:;">后台服务</tspan></tspan></text></g></g><g id="SvgjsG1022"><path id="SvgjsPath1023" d="M102.28107663889 177.73214521477792L321.140538319445 177.73214521477792L321.140538319445 177.73214521477792L541 177.73214521477792" stroke="#323232" stroke-width="2" fill="none" marker-end="url(#SvgjsMarker1024)"></path><rect id="SvgjsRect1026" width="158" height="16" x="242.640538319445" y="169.73214521477792" fill="#ffffff"></rect><text id="SvgjsText1027" font-family="微软雅黑" text-anchor="middle" font-size="13px" width="158px" fill="#323232" font-weight="400" align="top" lineHeight="16px" anchor="middle" family="微软雅黑" size="13px" weight="400" font-style="" opacity="1" y="168.10714521477792" transform="rotate(0)"><tspan id="SvgjsTspan1028" dy="16" x="321.640538319445"><tspan id="SvgjsTspan1029" style="text-decoration:;">2. 请求查询文件是否已上传</tspan></tspan></text></g><g id="SvgjsG1030" transform="translate(72,83)"><path id="SvgjsPath1031" d="M 0 4Q 0 0 4 0L 26 0Q 30 0 30 4L 30 96Q 30 100 26 100L 4 100Q 0 100 0 96L 0 4Z" stroke="rgba(50,50,50,1)" stroke-width="2" fill-opacity="1" fill="#bbdefb"></path></g><g id="SvgjsG1032"><path id="SvgjsPath1033" d="M103 105L208 105L208 156L105.60000000000002 156" stroke="#323232" stroke-width="2" fill="none" marker-end="url(#SvgjsMarker1034)"></path><rect id="SvgjsRect1036" width="97" height="16" x="159.5" y="121.19999999999999" fill="#ffffff"></rect><text id="SvgjsText1037" font-family="微软雅黑" text-anchor="middle" font-size="13px" width="97px" fill="#323232" font-weight="400" align="top" lineHeight="16px" anchor="middle" family="微软雅黑" size="13px" weight="400" font-style="" opacity="1" y="119.57499999999999" transform="rotate(0)"><tspan id="SvgjsTspan1038" dy="16" x="208"><tspan id="SvgjsTspan1039" style="text-decoration:;">1. 计算文件MD5</tspan></tspan></text></g><g id="SvgjsG1040" transform="translate(539,175)"><path id="SvgjsPath1041" d="M 0 4Q 0 0 4 0L 26 0Q 30 0 30 4L 30 76Q 30 80 26 80L 4 80Q 0 80 0 76L 0 4Z" stroke="rgba(50,50,50,1)" stroke-width="2" fill-opacity="1" fill="#bbdefb"></path></g><g id="SvgjsG1042"><path id="SvgjsPath1043" d="M570 182.20000000000002L673 182.20000000000002L673 243.70458439488363L572.5999999999999 243.70458439488363" stroke="#323232" stroke-width="2" fill="none" marker-end="url(#SvgjsMarker1044)"></path><rect id="SvgjsRect1046" width="123" height="16" x="611.5" y="203.65229219744188" fill="#ffffff"></rect><text id="SvgjsText1047" font-family="微软雅黑" text-anchor="middle" font-size="13px" width="123px" fill="#323232" font-weight="400" align="top" lineHeight="16px" anchor="middle" family="微软雅黑" size="13px" weight="400" font-style="" opacity="1" y="202.02729219744188" transform="rotate(0)"><tspan id="SvgjsTspan1048" dy="16" x="673"><tspan id="SvgjsTspan1049" style="text-decoration:;">3. 根据MD5查询文件</tspan></tspan></text></g><g id="SvgjsG1050"><path id="SvgjsPath1051" d="M539 251.80384757729337L539 252.47750000000002L105.60000000000002 252.47750000000002" stroke-dasharray="8,5" stroke="#323232" stroke-width="2" fill="none" marker-end="url(#SvgjsMarker1052)"></path><rect id="SvgjsRect1054" width="93" height="16" x="276.1368262113533" y="244.47750000000002" fill="#ffffff"></rect><text id="SvgjsText1055" font-family="微软雅黑" text-anchor="middle" font-size="13px" width="93px" fill="#323232" font-weight="400" align="top" lineHeight="16px" anchor="middle" family="微软雅黑" size="13px" weight="400" font-style="" opacity="1" y="242.85250000000002" transform="rotate(0)"><tspan id="SvgjsTspan1056" dy="16" x="322.6368262113533"><tspan id="SvgjsTspan1057" style="text-decoration:;">4. 返回查询结果</tspan></tspan></text></g><g id="SvgjsG1058" transform="translate(72,243.5)"><path id="SvgjsPath1059" d="M 0 4Q 0 0 4 0L 26 0Q 30 0 30 4L 30 90.5Q 30 94.5 26 94.5L 4 94.5Q 0 94.5 0 90.5L 0 4Z" stroke="rgba(50,50,50,1)" stroke-width="2" fill-opacity="1" fill="#bbdefb"></path></g><g id="SvgjsG1060"><path id="SvgjsPath1061" d="M102 278.9375L210 278.9375L210 327.73853277175704L104.60000000000002 327.73853277175704" stroke="#323232" stroke-width="2" fill="none" marker-end="url(#SvgjsMarker1062)"></path><rect id="SvgjsRect1064" width="171" height="16" x="124.5" y="294.0380163858785" fill="#ffffff"></rect><text id="SvgjsText1065" font-family="微软雅黑" text-anchor="middle" font-size="13px" width="171px" fill="#323232" font-weight="400" align="top" lineHeight="16px" anchor="middle" family="微软雅黑" size="13px" weight="400" font-style="" opacity="1" y="292.4130163858785" transform="rotate(0)"><tspan id="SvgjsTspan1066" dy="16" x="210"><tspan id="SvgjsTspan1067" style="text-decoration:;">5. 根据结果判断是否继续上传</tspan></tspan></text></g><g id="SvgjsG1068" transform="translate(72,381)"><path id="SvgjsPath1069" d="M 0 4Q 0 0 4 0L 26 0Q 30 0 30 4L 30 84Q 30 88 26 88L 4 88Q 0 88 0 84L 0 4Z" stroke="rgba(50,50,50,1)" stroke-width="2" fill-opacity="1" fill="#bbdefb"></path></g><g id="SvgjsG1070"><path id="SvgjsPath1071" d="M103 395L209 395L209 439L105.60000000000002 439" stroke="#323232" stroke-width="2" fill="none" marker-end="url(#SvgjsMarker1072)"></path><rect id="SvgjsRect1074" width="67" height="16" x="175.5" y="407.69999999999993" fill="#ffffff"></rect><text id="SvgjsText1075" font-family="微软雅黑" text-anchor="middle" font-size="13px" width="67px" fill="#323232" font-weight="400" align="top" lineHeight="16px" anchor="middle" family="微软雅黑" size="13px" weight="400" font-style="" opacity="1" y="406.07499999999993" transform="rotate(0)"><tspan id="SvgjsTspan1076" dy="16" x="209"><tspan id="SvgjsTspan1077" style="text-decoration:;">6. 文件分片</tspan></tspan></text></g><g id="SvgjsG1078"><path id="SvgjsPath1079" d="M102.18084795571099 465.426423563649L317.5904239778555 465.426423563649L317.5904239778555 465.426423563649L534 465.426423563649" stroke="#323232" stroke-width="2" fill="none" marker-end="url(#SvgjsMarker1080)"></path><rect id="SvgjsRect1082" width="67" height="16" x="284.5904239778555" y="457.42642356364905" fill="#ffffff"></rect><text id="SvgjsText1083" font-family="微软雅黑" text-anchor="middle" font-size="13px" width="67px" fill="#323232" font-weight="400" align="top" lineHeight="16px" anchor="middle" family="微软雅黑" size="13px" weight="400" font-style="" opacity="1" y="455.80142356364905" transform="rotate(0)"><tspan id="SvgjsTspan1084" dy="16" x="318.0904239778555"><tspan id="SvgjsTspan1085" style="text-decoration:;">7. 上传分片</tspan></tspan></text></g><g id="SvgjsG1086" transform="translate(539,463)"><path id="SvgjsPath1087" d="M 0 4Q 0 0 4 0L 26 0Q 30 0 30 4L 30 68Q 30 72 26 72L 4 72Q 0 72 0 68L 0 4Z" stroke="rgba(50,50,50,1)" stroke-width="2" fill-opacity="1" fill="#bbdefb"></path></g><g id="SvgjsG1088"><path id="SvgjsPath1089" d="M570 473L658 473L658 524L572.5999999999999 524" stroke="#323232" stroke-width="2" fill="none" marker-end="url(#SvgjsMarker1090)"></path><rect id="SvgjsRect1092" width="67" height="16" x="624.5" y="489.20000000000005" fill="#ffffff"></rect><text id="SvgjsText1093" font-family="微软雅黑" text-anchor="middle" font-size="13px" width="67px" fill="#323232" font-weight="400" align="top" lineHeight="16px" anchor="middle" family="微软雅黑" size="13px" weight="400" font-style="" opacity="1" y="487.57500000000005" transform="rotate(0)"><tspan id="SvgjsTspan1094" dy="16" x="658"><tspan id="SvgjsTspan1095" style="text-decoration:;">8. 保存分片</tspan></tspan></text></g><g id="SvgjsG1096" transform="translate(72,535)"><path id="SvgjsPath1097" d="M 0 4Q 0 0 4 0L 26 0Q 30 0 30 4L 30 101Q 30 105 26 105L 4 105Q 0 105 0 101L 0 4Z" stroke="rgba(50,50,50,1)" stroke-width="2" fill-opacity="1" fill="#ffffff"></path></g><g id="SvgjsG1098"><path id="SvgjsPath1099" d="M540.573576436351 532.180847955711L540.573576436351 535.2246349508544L100.76977778440516 535.2246349508544" stroke-dasharray="8,5" stroke="#323232" stroke-width="2" fill="none" marker-end="url(#SvgjsMarker1100)"></path><rect id="SvgjsRect1102" width="93" height="16" x="275.6935706079498" y="527.2246349508544" fill="#ffffff"></rect><text id="SvgjsText1103" font-family="微软雅黑" text-anchor="middle" font-size="13px" width="93px" fill="#323232" font-weight="400" align="top" lineHeight="16px" anchor="middle" family="微软雅黑" size="13px" weight="400" font-style="" opacity="1" y="525.5996349508544" transform="rotate(0)"><tspan id="SvgjsTspan1104" dy="16" x="322.1935706079498"><tspan id="SvgjsTspan1105" style="text-decoration:;">9. 返回上传结果</tspan></tspan></text></g><g id="SvgjsG1106"><path id="SvgjsPath1107" d="M103 559L210 559L210 609L105.60000000000002 609" stroke="#323232" stroke-width="2" fill="none" marker-end="url(#SvgjsMarker1108)"></path><rect id="SvgjsRect1110" width="178" height="16" x="121" y="574.7" fill="#ffffff"></rect><text id="SvgjsText1111" font-family="微软雅黑" text-anchor="middle" font-size="13px" width="178px" fill="#323232" font-weight="400" align="top" lineHeight="16px" anchor="middle" family="微软雅黑" size="13px" weight="400" font-style="" opacity="1" y="573.075" transform="rotate(0)"><tspan id="SvgjsTspan1112" dy="16" x="210"><tspan id="SvgjsTspan1113" style="text-decoration:;">10. 判断所有分片是是否都上传</tspan></tspan></text></g><g id="SvgjsG1114"><path id="SvgjsPath1115" d="M102.18738442592667 634.1547634765186L320.09369221296333 634.1547634765186L320.09369221296333 634.1547634765186L539 634.1547634765186" stroke="#323232" stroke-width="2" fill="none" marker-end="url(#SvgjsMarker1116)"></path><rect id="SvgjsRect1118" width="139" height="16" x="251.09369221296333" y="626.1547634765186" fill="#ffffff"></rect><text id="SvgjsText1119" font-family="微软雅黑" text-anchor="middle" font-size="13px" width="139px" fill="#323232" font-weight="400" align="top" lineHeight="16px" anchor="middle" family="微软雅黑" size="13px" weight="400" font-style="" opacity="1" y="624.5297634765186" transform="rotate(0)"><tspan id="SvgjsTspan1120" dy="16" x="320.59369221296333"><tspan id="SvgjsTspan1121" style="text-decoration:;">11. 发送文分片合并请求</tspan></tspan></text></g><g id="SvgjsG1122" transform="translate(539,635)"><path id="SvgjsPath1123" d="M 0 4Q 0 0 4 0L 26 0Q 30 0 30 4L 30 72Q 30 76 26 76L 4 76Q 0 76 0 72L 0 4Z" stroke="rgba(50,50,50,1)" stroke-width="2" fill-opacity="1" fill="#ffffff"></path></g><g id="SvgjsG1124"><path id="SvgjsPath1125" d="M569 642.6L660 642.6L660 698L571.5999999999999 698" stroke="#323232" stroke-width="2" fill="none" marker-end="url(#SvgjsMarker1126)"></path><rect id="SvgjsRect1128" width="100" height="16" x="610" y="661.0000000000001" fill="#ffffff"></rect><text id="SvgjsText1129" font-family="微软雅黑" text-anchor="middle" font-size="13px" width="100px" fill="#323232" font-weight="400" align="top" lineHeight="16px" anchor="middle" family="微软雅黑" size="13px" weight="400" font-style="" opacity="1" y="659.3750000000001" transform="rotate(0)"><tspan id="SvgjsTspan1130" dy="16" x="660"><tspan id="SvgjsTspan1131" style="text-decoration:;">12. 合并文件分片</tspan></tspan></text></g><g id="SvgjsG1132" transform="translate(72,706)"><path id="SvgjsPath1133" d="M 0 4Q 0 0 4 0L 26 0Q 30 0 30 4L 30 96Q 30 100 26 100L 4 100Q 0 100 0 96L 0 4Z" stroke="rgba(50,50,50,1)" stroke-width="2" fill-opacity="1" fill="#ffffff"></path></g><g id="SvgjsG1134"><path id="SvgjsPath1135" d="M538.5355339059328 705.4644660940672L320.76776695296644 705.4644660940672L320.76776695296644 705.4644660940672L102 705.4644660940672" stroke-dasharray="8,5" stroke="#323232" stroke-width="2" fill="none" marker-end="url(#SvgjsMarker1136)"></path><rect id="SvgjsRect1138" width="100" height="16" x="270.2677669529663" y="697.4644660940672" fill="#ffffff"></rect><text id="SvgjsText1139" font-family="微软雅黑" text-anchor="middle" font-size="13px" width="100px" fill="#323232" font-weight="400" align="top" lineHeight="16px" anchor="middle" family="微软雅黑" size="13px" weight="400" font-style="" opacity="1" y="695.8394660940672" transform="rotate(0)"><tspan id="SvgjsTspan1140" dy="16" x="320.2677669529663"><tspan id="SvgjsTspan1141" style="text-decoration:;">13. 返回合并结果</tspan></tspan></text></g><g id="SvgjsG1142"><path id="SvgjsPath1143" d="M102 728L208 728L208 789L104.60000000000002 789" stroke="#323232" stroke-width="2" fill="none" marker-end="url(#SvgjsMarker1144)"></path><rect id="SvgjsRect1146" width="74" height="16" x="171" y="749.2" fill="#ffffff"></rect><text id="SvgjsText1147" font-family="微软雅黑" text-anchor="middle" font-size="13px" width="74px" fill="#323232" font-weight="400" align="top" lineHeight="16px" anchor="middle" family="微软雅黑" size="13px" weight="400" font-style="" opacity="1" y="747.575" transform="rotate(0)"><tspan id="SvgjsTspan1148" dy="16" x="208"><tspan id="SvgjsTspan1149" style="text-decoration:;">14. 上传完成</tspan></tspan></text></g></svg>