<?xml version="1.0" encoding="UTF-8" standalone="no"?>
<!-- Created with Inkscape (http://www.inkscape.org/) -->

<svg
   xmlns:dc="http://purl.org/dc/elements/1.1/"
   xmlns:cc="http://creativecommons.org/ns#"
   xmlns:rdf="http://www.w3.org/1999/02/22-rdf-syntax-ns#"
   xmlns:svg="http://www.w3.org/2000/svg"
   xmlns="http://www.w3.org/2000/svg"
   xmlns:sodipodi="http://sodipodi.sourceforge.net/DTD/sodipodi-0.dtd"
   xmlns:inkscape="http://www.inkscape.org/namespaces/inkscape"
   width="424.42114"
   height="85.97049"
   id="svg2"
   sodipodi:version="0.32"
   inkscape:version="0.91 r13725"
   sodipodi:docname="logarithm-concept1.svg"
   inkscape:output_extension="org.inkscape.output.svg.inkscape"
   version="1.1">
  <sodipodi:namedview
     id="base"
     pagecolor="#ffffff"
     bordercolor="#666666"
     borderopacity="1.0"
     gridtolerance="10000"
     guidetolerance="10"
     objecttolerance="10"
     inkscape:pageopacity="0.0"
     inkscape:pageshadow="2"
     inkscape:zoom="2.1817466"
     inkscape:cx="260.60883"
     inkscape:cy="28.127193"
     inkscape:document-units="px"
     inkscape:current-layer="layer1"
     inkscape:window-width="1366"
     inkscape:window-height="745"
     inkscape:window-x="-8"
     inkscape:window-y="-8"
     showborder="true"
     showgrid="false"
     inkscape:window-maximized="1" />
  <defs
     id="defs4">
    <marker
       inkscape:stockid="Arrow1Mend"
       orient="auto"
       refY="0"
       refX="0"
       id="Arrow1Mend"
       style="overflow:visible"
       inkscape:isstock="true">
      <path
         id="path4276"
         d="M 0,0 5,-5 -12.5,0 5,5 0,0 Z"
         style="fill:#edd400;fill-opacity:1;fill-rule:evenodd;stroke:#edd400;stroke-width:1pt;stroke-opacity:1"
         transform="matrix(-0.4,0,0,-0.4,-4,0)"
         inkscape:connector-curvature="0" />
    </marker>
    <marker
       inkscape:stockid="Arrow1Lend"
       orient="auto"
       refY="0"
       refX="0"
       id="Arrow1Lend"
       style="overflow:visible"
       inkscape:isstock="true">
      <path
         id="path4270"
         d="M 0,0 5,-5 -12.5,0 5,5 0,0 Z"
         style="fill:#000000;fill-opacity:1;fill-rule:evenodd;stroke:#000000;stroke-width:1pt;stroke-opacity:1"
         transform="matrix(-0.8,0,0,-0.8,-10,0)"
         inkscape:connector-curvature="0" />
    </marker>
    <marker
       inkscape:stockid="Arrow1MendN"
       orient="auto"
       refY="0"
       refX="0"
       id="Arrow1MendN"
       style="overflow:visible">
      <path
         id="path4338"
         d="M 0,0 5,-5 -12.5,0 5,5 0,0 Z"
         style="fill:#005c94;fill-rule:evenodd;stroke:#005c94;stroke-width:1pt;marker-start:none"
         transform="matrix(-0.4,0,0,-0.4,-4,0)"
         inkscape:connector-curvature="0" />
    </marker>
  </defs>
  <metadata
     id="metadata7">
    <rdf:RDF>
      <cc:Work
         rdf:about="">
        <dc:format>image/svg+xml</dc:format>
        <dc:type
           rdf:resource="http://purl.org/dc/dcmitype/StillImage" />
        <dc:title></dc:title>
      </cc:Work>
    </rdf:RDF>
  </metadata>
  <g
     inkscape:label="Layer 1"
     inkscape:groupmode="layer"
     id="layer1"
     transform="translate(264.62885,-199.80963)">
    <rect
       style="color:#000000;display:inline;overflow:visible;visibility:visible;opacity:0.09523812;fill:#fce94f;fill-opacity:1;fill-rule:nonzero;stroke:none;stroke-width:2.5;stroke-linecap:round;stroke-linejoin:miter;stroke-miterlimit:4;stroke-dasharray:none;stroke-dashoffset:0;stroke-opacity:1;marker:none;marker-mid:none;enable-background:accumulate"
       id="rect4192"
       width="169.11554"
       height="72.729256"
       x="-9.3232441"
       y="199.80963"
       rx="25.897736"
       ry="24.102568" />
    <rect
       style="color:#000000;display:inline;overflow:visible;visibility:visible;opacity:0.09523812;fill:#fce94f;fill-opacity:1;fill-rule:nonzero;stroke:none;stroke-width:2.5;stroke-linecap:round;stroke-linejoin:miter;stroke-miterlimit:4;stroke-dasharray:none;stroke-dashoffset:0;stroke-opacity:1;marker:none;marker-mid:none;enable-background:accumulate"
       id="rect3158"
       width="200.75339"
       height="72.729256"
       x="-264.62885"
       y="199.80963"
       rx="30.742638"
       ry="24.102568" />
    <text
       xml:space="preserve"
       style="color:#000000;font-style:normal;font-variant:normal;font-weight:normal;font-stretch:normal;font-size:29.75551414px;line-height:121.00000381%;font-family:'Comic Sans MS';-inkscape-font-specification:'Comic Sans MS, Normal';text-indent:0;text-align:start;text-decoration:none;text-decoration-line:none;letter-spacing:normal;word-spacing:normal;text-transform:none;direction:ltr;block-progression:tb;writing-mode:lr-tb;text-anchor:start;display:inline;overflow:visible;visibility:visible;opacity:1;fill:#204a87;fill-opacity:1;fill-rule:nonzero;stroke:none;stroke-width:1px;stroke-linecap:butt;stroke-linejoin:miter;stroke-miterlimit:4;stroke-dasharray:none;stroke-dashoffset:0;stroke-opacity:1;marker:none;marker-start:none;marker-mid:none;marker-end:none;enable-background:accumulate"
       x="55.166382"
       y="236.15594"
       id="text2160"
       sodipodi:linespacing="121%"><tspan
         sodipodi:role="line"
         id="tspan2176"
         x="55.166382"
         y="236.15594">(  ) =</tspan></text>
    <text
       xml:space="preserve"
       style="color:#000000;font-style:italic;font-variant:normal;font-weight:normal;font-stretch:normal;font-size:21.25374985px;line-height:121.00000381%;font-family:'Comic Sans MS';-inkscape-font-specification:'Comic Sans MS, Italic';text-indent:0;text-align:start;text-decoration:none;text-decoration-line:none;letter-spacing:normal;word-spacing:normal;text-transform:none;direction:ltr;block-progression:tb;writing-mode:lr-tb;text-anchor:start;display:inline;overflow:visible;visibility:visible;opacity:1;fill:#edd400;fill-opacity:1;fill-rule:nonzero;stroke:none;stroke-width:1px;stroke-linecap:butt;stroke-linejoin:miter;stroke-miterlimit:4;stroke-dasharray:none;stroke-dashoffset:0;stroke-opacity:1;marker:none;marker-start:none;marker-mid:none;marker-end:none;enable-background:accumulate"
       x="42.406212"
       y="255.99004"
       id="text2164"
       sodipodi:linespacing="121%"><tspan
         sodipodi:role="line"
         id="tspan2166"
         x="42.406212"
         y="255.99004">2</tspan></text>
    <text
       xml:space="preserve"
       style="color:#000000;font-style:italic;font-variant:normal;font-weight:normal;font-stretch:normal;font-size:25.50499916px;line-height:121.00000381%;font-family:'Comic Sans MS';-inkscape-font-specification:'Comic Sans MS, Italic';text-indent:0;text-align:start;text-decoration:none;text-decoration-line:none;letter-spacing:normal;word-spacing:normal;text-transform:none;direction:ltr;block-progression:tb;writing-mode:lr-tb;text-anchor:start;display:inline;overflow:visible;visibility:visible;opacity:1;fill:#729fcf;fill-opacity:1;fill-rule:nonzero;stroke:none;stroke-width:1px;stroke-linecap:butt;stroke-linejoin:miter;stroke-miterlimit:4;stroke-dasharray:none;stroke-dashoffset:0;stroke-opacity:1;marker:none;marker-start:none;marker-mid:none;marker-end:none;enable-background:accumulate"
       x="65.731339"
       y="236.14801"
       id="text2172"
       sodipodi:linespacing="121%"><tspan
         sodipodi:role="line"
         id="tspan2174"
         x="65.731339"
         y="236.14801">8</tspan></text>
    <text
       xml:space="preserve"
       style="color:#000000;font-style:italic;font-variant:normal;font-weight:normal;font-stretch:normal;font-size:25.50499916px;line-height:121.00000381%;font-family:'Comic Sans MS';-inkscape-font-specification:'Comic Sans MS, Italic';text-indent:0;text-align:start;text-decoration:none;text-decoration-line:none;letter-spacing:normal;word-spacing:normal;text-transform:none;direction:ltr;block-progression:tb;writing-mode:lr-tb;text-anchor:start;display:inline;overflow:visible;visibility:visible;opacity:1;fill:#c17d11;fill-opacity:1;fill-rule:nonzero;stroke:none;stroke-width:1px;stroke-linecap:butt;stroke-linejoin:miter;stroke-miterlimit:4;stroke-dasharray:none;stroke-dashoffset:0;stroke-opacity:1;marker:none;marker-start:none;marker-mid:none;marker-end:none;enable-background:accumulate"
       x="125.70181"
       y="236.65132"
       id="text2178"
       sodipodi:linespacing="121%"><tspan
         sodipodi:role="line"
         id="tspan2180"
         x="125.70181"
         y="236.65132">3</tspan></text>
    <text
       xml:space="preserve"
       style="color:#000000;font-style:italic;font-variant:normal;font-weight:normal;font-stretch:normal;font-size:25.50499916px;line-height:121.00000381%;font-family:'Comic Sans MS';-inkscape-font-specification:'Comic Sans MS, Italic';text-indent:0;text-align:start;text-decoration:none;text-decoration-line:none;letter-spacing:normal;word-spacing:normal;text-transform:none;direction:ltr;block-progression:tb;writing-mode:lr-tb;text-anchor:start;display:inline;overflow:visible;visibility:visible;opacity:1;fill:#edd400;fill-opacity:1;fill-rule:nonzero;stroke:none;stroke-width:1px;stroke-linecap:butt;stroke-linejoin:miter;stroke-miterlimit:4;stroke-dasharray:none;stroke-dashoffset:0;stroke-opacity:1;marker:none;marker-start:none;marker-mid:none;marker-end:none;enable-background:accumulate"
       x="-247.65019"
       y="226.69319"
       id="text2200"
       sodipodi:linespacing="121%"><tspan
         sodipodi:role="line"
         id="tspan2204"
         x="-247.65019"
         y="226.69319">2 x 2 x 2</tspan></text>
    <text
       xml:space="preserve"
       style="color:#000000;font-style:italic;font-variant:normal;font-weight:normal;font-stretch:normal;font-size:25.50499916px;line-height:121.00000381%;font-family:'Comic Sans MS';-inkscape-font-specification:'Comic Sans MS, Italic';text-indent:0;text-align:start;text-decoration:none;text-decoration-line:none;letter-spacing:normal;word-spacing:normal;text-transform:none;direction:ltr;block-progression:tb;writing-mode:lr-tb;text-anchor:start;display:inline;overflow:visible;visibility:visible;opacity:1;fill:#729fcf;fill-opacity:1;fill-rule:nonzero;stroke:none;stroke-width:1px;stroke-linecap:butt;stroke-linejoin:miter;stroke-miterlimit:4;stroke-dasharray:none;stroke-dashoffset:0;stroke-opacity:1;marker:none;marker-start:none;marker-mid:none;marker-end:none;enable-background:accumulate"
       x="-101.86226"
       y="226.56889"
       id="text2206"
       sodipodi:linespacing="121%"><tspan
         sodipodi:role="line"
         id="tspan2216"
         x="-101.86226"
         y="226.56889">8</tspan></text>
    <text
       xml:space="preserve"
       style="color:#000000;font-style:normal;font-variant:normal;font-weight:normal;font-stretch:normal;font-size:30.60567284px;line-height:121.00000381%;font-family:'Comic Sans MS';text-indent:0;text-align:start;text-decoration:none;text-decoration-line:none;letter-spacing:normal;word-spacing:normal;text-transform:none;direction:ltr;block-progression:tb;writing-mode:lr-tb;text-anchor:start;display:inline;overflow:visible;visibility:visible;opacity:1;fill:#204a87;fill-opacity:1;fill-rule:nonzero;stroke:none;stroke-width:1px;stroke-linecap:butt;stroke-linejoin:miter;stroke-miterlimit:4;stroke-dasharray:none;stroke-dashoffset:0;stroke-opacity:1;marker:none;marker-start:none;marker-mid:none;marker-end:none;enable-background:accumulate"
       x="-126.94123"
       y="226.92981"
       id="text2210"
       sodipodi:linespacing="121%"><tspan
         sodipodi:role="line"
         id="tspan2214"
         x="-126.94123"
         y="226.92981">=</tspan></text>
    <path
       style="color:#000000;display:inline;overflow:visible;visibility:visible;opacity:1;fill:#c17d11;fill-opacity:1;fill-rule:nonzero;stroke:none;stroke-width:2.5;stroke-linecap:round;stroke-linejoin:miter;stroke-miterlimit:4;stroke-dasharray:none;stroke-dashoffset:0;stroke-opacity:1;marker:none;marker-mid:none;enable-background:accumulate"
       id="path2218"
       d="m -247.64878,230.16623 c 0.1613,0.28577 0.33433,0.56615 0.50148,0.8492 0.23021,0.40011 0.50814,0.77585 0.76536,1.16196 0.2681,0.41588 0.63809,0.76566 0.96406,1.14307 0.38496,0.40233 0.83756,0.74548 1.26174,1.11301 0.42986,0.36651 0.90901,0.68138 1.36707,1.01792 0.4678,0.34306 1.00319,0.59702 1.50935,0.88862 0.58069,0.31025 1.21057,0.53171 1.82512,0.77976 0.69602,0.26984 1.42868,0.44435 2.14976,0.64841 0.84819,0.21607 1.71594,0.35247 2.58081,0.5003 1.01163,0.15801 2.03379,0.2447 3.05387,0.34321 1.08779,0.0969 2.17808,0.16742 3.26773,0.24414 1.05266,0.0639 2.10564,0.12272 3.15871,0.18077 0.97582,0.0614 1.95287,0.10189 2.92975,0.14496 0.89978,0.0289 1.79899,0.0705 2.69832,0.10874 0.83923,0.0434 1.67939,0.066 2.51924,0.095 0.80249,0.0214 1.60464,0.003 2.40698,-0.003 0.78081,-0.004 1.55829,-0.0607 2.33703,-0.0994 0.76256,-0.0501 1.51764,-0.15651 2.27506,-0.24403 0.72514,-0.0899 1.44758,-0.19511 2.17043,-0.29801 0.6762,-0.11108 1.35955,-0.18029 2.04063,-0.2624 0.62502,-0.0961 1.25942,-0.0904 1.88939,-0.12906 0.58825,-0.028 1.15987,0.10129 1.73803,0.16278 0.51796,0.0792 1.01101,0.24381 1.51353,0.37276 0.42612,0.1001 0.8018,0.3096 1.20129,0.46384 0.39764,0.17124 0.70101,0.46218 1.05017,0.69238 0.31903,0.26421 0.65459,0.51175 0.98184,0.7676 0.29424,0.21003 0.56875,0.44025 0.85306,0.66033 0.24818,0.18273 0.43957,0.41487 0.65886,0.62184 0.19639,0.18957 0.33887,0.41468 0.50815,0.62185 0.11344,0.14735 0.22168,0.29785 0.33244,0.44667 0.11702,0.14677 0.16799,0.3223 0.25158,0.48269 0.0763,0.16523 0.11825,0.34025 0.1773,0.51015 0.0464,0.15039 0.0767,0.304 0.11505,0.45596 0.0297,0.12337 0.0482,0.24848 0.0722,0.3727 0.014,0.0802 0.0276,0.16039 0.0414,0.2406 0.008,0.0487 0.0167,0.0974 0.025,0.14612 0.005,0.0296 0.0101,0.0591 0.0152,0.0887 -0.19498,-0.69457 -1.60857,0.0689 -2.4094,0.13914 0.0706,-0.20339 0.1142,-0.41311 0.17129,-0.61959 0.0779,-0.35362 0.20808,-0.69515 0.31202,-1.04243 0.12928,-0.39173 0.29961,-0.77103 0.44936,-1.15643 0.12949,-0.3299 0.28461,-0.65111 0.42685,-0.97652 0.11936,-0.31583 0.32798,-0.59475 0.49143,-0.89113 0.14535,-0.25673 0.35491,-0.47773 0.53173,-0.71572 0.16646,-0.25842 0.47471,-0.39542 0.709,-0.59057 0.27434,-0.19861 0.61677,-0.29658 0.92305,-0.44386 0.90807,-0.32224 1.87126,-0.50342 2.81189,-0.73405 0.27122,-0.0651 0.55291,-0.0774 0.82911,-0.11608 0.31139,-0.003 0.62214,-0.0218 0.9332,-0.0328 0.31434,0.002 0.62711,0.0264 0.94092,0.0397 0.30618,0.039 0.61574,0.0416 0.92347,0.0624 0.32508,0.0253 0.65121,0.0395 0.97688,0.0593 0.38848,0.004 0.77542,0.0346 1.16324,0.0519 0.41665,0.0153 0.83236,0.0442 1.24869,0.0663 0.43588,0.0219 0.87241,0.0271 1.30859,0.0407 0.46906,0.0236 0.93814,0.001 1.40696,0.002 0.49936,-0.0201 0.99697,-0.0594 1.49552,-0.0897 0.54006,-0.0444 1.08257,-0.0428 1.62388,-0.0614 0.58827,-0.009 1.17655,-0.0172 1.76483,-0.0258 0.57273,-0.008 1.14548,-0.0151 1.71822,-0.0226 0.58781,-0.0131 1.17572,0.003 1.76364,0.007 0.64375,0.011 1.28678,0.0386 1.93013,0.0606 0.66159,0.014 1.32249,0.043 1.9837,0.067 0.69053,0.0174 1.38066,0.0438 2.07098,0.0671 0.70095,0.0143 1.4013,0.0431 2.10192,0.0669 0.58298,0.021 1.16617,0.0363 1.74926,0.054 0.44143,0.0144 0.88309,0.0191 1.32462,0.0286 0.39734,0.0268 0.79576,0.0328 1.19361,0.0492 0.38765,0.0335 0.77715,0.039 1.16566,0.0584 0.37864,-0.007 0.75745,-0.006 1.13616,-0.009 0.36986,-0.002 0.7397,-0.005 1.10956,-0.007 0.36627,-0.01 0.72751,-0.0644 1.09122,-0.0966 0.39509,-0.0452 0.78755,-0.10642 1.18104,-0.1596 0.38022,-0.0532 0.75399,-0.13502 1.13106,-0.20254 0.31456,-0.0684 0.62857,-0.13803 0.94286,-0.20704 -0.33367,0.0877 -0.67355,0.15593 -1.01032,0.23389 0.41829,-0.13204 0.79811,-0.33932 1.19654,-0.50872 0.38533,-0.16975 0.75807,-0.3605 1.13705,-0.54071 0.31307,-0.13568 0.60681,-0.30241 0.91012,-0.45357 0.28668,-0.15183 0.57305,-0.30406 0.85958,-0.4561 0.25613,-0.11924 0.49341,-0.26607 0.74,-0.39905 0.21408,-0.0924 0.39083,-0.23503 0.58584,-0.35229 0.20922,-0.1434 0.37469,-0.32841 0.56156,-0.4922 0.19756,-0.16912 0.34983,-0.37323 0.5245,-0.55958 0.16891,-0.18901 0.31865,-0.39073 0.47775,-0.58581 0.14965,-0.16351 0.24227,-0.35853 0.36322,-0.53753 0.11979,-0.18422 0.17926,-0.39231 0.26866,-0.58795 0.0727,-0.1837 0.11877,-0.37447 0.17813,-0.56158 0.041,-0.13359 0.0717,-0.26937 0.10761,-0.40405 0.0218,-0.0878 0.0431,-0.17571 0.0646,-0.26357 0.0145,-0.0527 0.0271,-0.10558 0.0408,-0.15848 0.023,-0.0972 0.0216,-0.19641 0.0324,-0.29524 l 2.49847,0.15265 c -0.0382,-0.0487 -0.0217,-0.21342 -0.0372,-0.0475 -0.0124,0.0665 -0.0186,0.1338 -0.0372,0.19922 -0.0216,0.0884 -0.0433,0.17671 -0.0648,0.26509 -0.0354,0.14287 -0.0675,0.28641 -0.10619,0.42859 -0.0585,0.20591 -0.11051,0.4133 -0.17554,0.61774 -0.0893,0.23898 -0.15984,0.48381 -0.2679,0.7173 -0.12351,0.22216 -0.22095,0.45731 -0.37112,0.66753 -0.16125,0.2132 -0.30391,0.43726 -0.48364,0.63944 -0.1787,0.21397 -0.35068,0.43233 -0.53609,0.64188 -0.19268,0.19329 -0.37689,0.39304 -0.57784,0.57966 -0.20732,0.16764 -0.38481,0.36909 -0.6241,0.50463 -0.25115,0.14691 -0.49595,0.30166 -0.75298,0.44047 -0.28609,0.15053 -0.57343,0.29916 -0.85825,0.45158 -0.30768,0.164 -0.61259,0.33193 -0.92286,0.49191 -0.38049,0.18414 -0.76048,0.36931 -1.14157,0.55247 -0.40657,0.19153 -0.81172,0.3855 -1.21979,0.57462 -0.94791,0.27277 -1.75552,0.95338 -2.86984,0.8125 -0.32548,0.0611 -0.64866,0.1323 -0.97645,0.18346 -0.38876,0.0589 -0.77433,0.1361 -1.16676,0.17683 -0.40796,0.0426 -0.81426,0.0989 -1.22396,0.12782 -0.38836,0.0124 -0.77654,0.0568 -1.16632,0.0373 -0.37086,0.001 -0.74171,0.004 -1.11258,0.004 -0.39142,-0.008 -0.78387,0.008 -1.17459,-0.0232 -0.38638,-0.0176 -0.77233,-0.0449 -1.15915,-0.0528 -0.39357,-0.0128 -0.78681,-0.0378 -1.18075,-0.0384 -0.44424,-0.0121 -0.8886,-0.0207 -1.33274,-0.0362 -0.58453,-0.0193 -1.16914,-0.0367 -1.75357,-0.0588 -0.70024,-0.0216 -1.40047,-0.0439 -2.1007,-0.0661 -0.69123,-0.0222 -1.38248,-0.0441 -2.0736,-0.0691 -0.66059,-0.0215 -1.32112,-0.0442 -1.98173,-0.0652 -0.6357,-0.0168 -1.27134,-0.042 -1.90744,-0.0411 -0.58189,0.002 -1.16391,-0.009 -1.74566,0.008 -0.57221,0.008 -1.14444,0.015 -1.71663,0.0237 -0.585,0.0104 -1.17019,0.0159 -1.75496,0.034 -0.53093,0.028 -1.06263,0.0475 -1.5928,0.0865 -0.51323,0.0212 -1.02607,0.0615 -1.54062,0.0537 -0.48002,-0.01 -0.96048,-0.01 -1.44035,-0.0294 -0.44335,-0.0197 -0.88735,-0.0288 -1.33013,-0.0591 -0.41547,-0.0214 -0.83064,-0.0465 -1.24634,-0.0641 -0.38909,-0.0183 -0.77852,-0.0296 -1.1672,-0.055 -0.32576,-0.0198 -0.65083,-0.0477 -0.9771,-0.0592 -0.30258,-0.0163 -0.60444,-0.0498 -0.90785,-0.0488 -0.28746,0.008 -0.57811,-0.0162 -0.86417,0.0235 -0.28336,0.0314 -0.57576,0.02 -0.85188,0.0944 -0.24945,0.0572 -0.50448,0.0976 -0.74916,0.17162 0.34602,-0.0859 1.38174,-0.35042 1.03412,-0.26972 -0.28643,0.0889 -0.58472,0.14769 -0.85905,0.26671 -0.21554,0.10709 -0.44374,0.19201 -0.6455,0.32072 -0.16946,0.18027 -0.38835,0.32883 -0.51188,0.5445 -0.16201,0.2523 -0.36134,0.48617 -0.48618,0.75718 -0.14242,0.31397 -0.30448,0.62118 -0.42739,0.9422 -0.15018,0.36882 -0.31827,0.73193 -0.45056,1.10651 -0.10503,0.32353 -0.24241,0.63909 -0.31519,0.97086 -0.0561,0.21881 -0.11266,0.43756 -0.16826,0.65645 -0.36441,0.0812 -2.36629,1.32517 -2.53195,0.44477 -0.005,-0.0296 -0.01,-0.0591 -0.0151,-0.0887 -0.008,-0.0487 -0.0165,-0.0974 -0.0248,-0.14605 -0.0135,-0.0794 -0.0269,-0.15875 -0.0405,-0.23813 -0.0205,-0.11085 -0.0366,-0.22235 -0.0613,-0.33259 -0.0331,-0.13422 -0.0589,-0.2699 -0.0992,-0.40274 -0.0492,-0.14037 -0.0825,-0.28557 -0.14777,-0.42157 -0.0571,-0.0971 -0.0907,-0.20722 -0.17252,-0.29318 -0.10751,-0.14233 -0.21554,-0.28435 -0.32252,-0.42699 -0.15061,-0.17187 -0.27739,-0.36151 -0.45262,-0.5165 -0.19848,-0.1723 -0.37568,-0.36529 -0.59627,-0.51762 -0.28104,-0.21532 -0.55862,-0.43438 -0.84327,-0.64606 -0.32388,-0.25064 -0.64127,-0.50801 -0.97165,-0.7519 -0.30234,-0.16754 -0.56406,-0.40461 -0.91266,-0.50572 -0.36669,-0.11697 -0.72049,-0.27132 -1.10212,-0.35155 -0.46819,-0.0887 -0.92531,-0.23545 -1.40681,-0.26646 -0.52843,-0.0198 -1.05848,-0.0992 -1.58901,-0.0344 -0.60776,0.0571 -1.21918,0.0918 -1.82324,0.17942 -0.67408,0.0906 -1.34907,0.17615 -2.02153,0.2761 -0.72869,0.0981 -1.4558,0.20563 -2.18768,0.28503 -0.77586,0.0763 -1.54991,0.1733 -2.33118,0.20108 -0.79203,0.0275 -1.58375,0.0693 -2.37701,0.0672 -0.81457,-0.003 -1.62953,0.009 -2.44375,-0.0276 -0.84318,-0.0332 -1.68658,-0.0619 -2.52934,-0.10404 -0.89899,-0.0364 -1.79805,-0.071 -2.697,-0.10811 -0.97963,-0.048 -1.9593,-0.0952 -2.93834,-0.153 -1.05707,-0.0617 -2.11443,-0.11991 -3.17075,-0.19179 -1.09771,-0.0811 -2.19624,-0.15562 -3.29113,-0.26503 -1.04042,-0.11295 -2.08424,-0.20908 -3.11254,-0.39736 -0.89032,-0.17123 -1.78677,-0.32343 -2.65518,-0.57478 -0.74773,-0.23258 -1.51037,-0.43145 -2.22828,-0.73549 -0.64299,-0.28102 -1.30583,-0.52979 -1.90719,-0.88161 -0.53332,-0.31926 -1.08673,-0.61418 -1.57882,-0.98561 -0.47239,-0.35849 -0.9656,-0.69638 -1.40966,-1.08398 -0.4501,-0.39707 -0.92346,-0.7753 -1.32218,-1.21605 -0.34635,-0.41723 -0.73667,-0.80806 -1.02488,-1.26249 -0.26568,-0.40464 -0.55115,-0.79949 -0.7908,-1.21743 -0.17013,-0.28845 -0.3448,-0.57484 -0.5104,-0.8654 l 2.34329,-0.7742 z"
       inkscape:connector-curvature="0" />
    <text
       xml:space="preserve"
       style="color:#000000;font-style:italic;font-variant:normal;font-weight:normal;font-stretch:normal;font-size:25.50499916px;line-height:121.00000381%;font-family:'Comic Sans MS';-inkscape-font-specification:'Comic Sans MS, Italic';text-indent:0;text-align:start;text-decoration:none;text-decoration-line:none;letter-spacing:normal;word-spacing:normal;text-transform:none;direction:ltr;block-progression:tb;writing-mode:lr-tb;text-anchor:start;display:inline;overflow:visible;visibility:visible;opacity:1;fill:#c17d11;fill-opacity:1;fill-rule:nonzero;stroke:none;stroke-width:1px;stroke-linecap:butt;stroke-linejoin:miter;stroke-miterlimit:4;stroke-dasharray:none;stroke-dashoffset:0;stroke-opacity:1;marker:none;marker-start:none;marker-mid:none;marker-end:none;enable-background:accumulate"
       x="-206.08084"
       y="267.66669"
       id="text4143"
       sodipodi:linespacing="121%"><tspan
         sodipodi:role="line"
         id="tspan4145"
         x="-206.08084"
         y="267.66669">3</tspan></text>
    <path
       style="color:#000000;display:inline;overflow:visible;visibility:visible;opacity:1;fill:#204a87;fill-opacity:1;fill-rule:nonzero;stroke:none;stroke-width:2.5;stroke-linecap:round;stroke-linejoin:miter;stroke-miterlimit:4;stroke-dasharray:none;stroke-dashoffset:0;stroke-opacity:1;marker:none;marker-mid:none;enable-background:accumulate"
       d="m -53.423084,234.63885 c 4.366919,-1.17328 8.940888,-1.5848 13.451826,-1.31253 3.943985,0.39458 7.805653,1.39312 11.770381,1.62419 2.75141,0.2771 5.478149,-0.32169 8.133518,-0.97477 0.89574,-0.15779 2.1448,-0.62829 1.063125,0.39204 -0.383792,0.47657 -0.767585,0.95314 -1.151377,1.42971 -2.6983,0.58266 -5.411565,1.33448 -8.205497,1.21145 -4.023219,-0.14684 -7.954602,-1.06739 -11.933424,-1.58265 -3.936111,-0.42209 -7.934327,-0.0851 -11.809955,0.66838 -0.87441,0.0735 -2.465218,0.74949 -2.933055,0.59075 0.538037,-0.68223 1.076999,-1.36414 1.614458,-2.04657 z"
       id="path4175"
       inkscape:connector-curvature="0" />
    <path
       style="color:#000000;display:inline;overflow:visible;visibility:visible;opacity:1;fill:#204a87;fill-opacity:1;fill-rule:nonzero;stroke:none;stroke-width:2.5;stroke-linecap:round;stroke-linejoin:miter;stroke-miterlimit:4;stroke-dasharray:none;stroke-dashoffset:0;stroke-opacity:1;marker:none;marker-mid:none;enable-background:accumulate"
       d="m -27.388577,230.69967 c 0.983978,1.16859 2.299385,2.0327 3.818266,2.30226 1.395232,0.24829 2.818701,0.74192 4.243497,0.44079 -0.602934,0.69509 -1.205869,1.39019 -1.808803,2.08528 -1.800199,-0.009 -3.587316,-0.4595 -5.294546,-1.00378 -1.267675,-0.46276 -2.840912,-1.65992 -3.280365,-2.64109 0.773907,-0.39436 1.548431,-0.78973 2.321951,-1.18346 z"
       id="path4177"
       inkscape:connector-curvature="0" />
    <path
       style="color:#000000;display:inline;overflow:visible;visibility:visible;opacity:1;fill:#204a87;fill-opacity:1;fill-rule:nonzero;stroke:none;stroke-width:2.5;stroke-linecap:round;stroke-linejoin:miter;stroke-miterlimit:4;stroke-dasharray:none;stroke-dashoffset:0;stroke-opacity:1;marker:none;marker-mid:none;enable-background:accumulate"
       d="m -29.299986,241.25343 c 1.103198,-1.69943 2.586595,-3.09251 4.218236,-4.27608 1.05851,-0.8734 2.077261,-1.85603 3.379702,-2.3561 0.866108,0.31053 1.732216,0.62106 2.598324,0.93159 -2.157357,0.63844 -3.594766,2.47026 -5.400911,3.69636 -0.935291,0.55961 -1.407301,2.0001 -2.356519,2.25895 -0.812937,-0.0849 -1.625928,-0.16986 -2.438832,-0.25472 z"
       id="path4179"
       inkscape:connector-curvature="0" />
    <path
       style="color:#000000;display:inline;overflow:visible;visibility:visible;opacity:1;fill:#204a87;fill-opacity:1;fill-rule:nonzero;stroke:none;stroke-width:2.5;stroke-linecap:round;stroke-linejoin:miter;stroke-miterlimit:4;stroke-dasharray:none;stroke-dashoffset:0;stroke-opacity:1;marker:none;marker-mid:none;enable-background:accumulate"
       d="m -55.138132,235.24454 c 2.521447,-1.70851 5.484873,-2.62642 8.005741,-4.34402 0.813224,-0.22823 1.260501,-1.42702 2.142967,-0.90829 0.66589,0.17729 1.331779,0.35458 1.997669,0.53187 -0.995441,0.81055 -2.198213,1.65035 -3.394088,2.28236 -1.969839,1.18302 -4.166084,2.0544 -6.158311,3.12448 -0.864619,-0.22875 -1.729562,-0.45793 -2.593978,-0.6864 z"
       id="path4181"
       inkscape:connector-curvature="0" />
    <path
       style="color:#000000;display:inline;overflow:visible;visibility:visible;opacity:1;fill:#204a87;fill-opacity:1;fill-rule:nonzero;stroke:none;stroke-width:2.5;stroke-linecap:round;stroke-linejoin:miter;stroke-miterlimit:4;stroke-dasharray:none;stroke-dashoffset:0;stroke-opacity:1;marker:none;marker-mid:none;enable-background:accumulate"
       d="m -52.069918,234.47692 c 2.554227,0.62769 5.237442,0.97656 7.591572,2.20974 1.281508,0.84434 2.495791,1.88176 3.263702,3.23035 -0.228742,-0.39451 -0.843588,0.41764 -1.24154,0.55195 -0.400829,0.14314 -0.942071,0.87482 -1.24134,0.59227 -1.054482,-1.68794 -2.777632,-2.92528 -4.70705,-3.40847 -1.899603,-0.52985 -3.834579,-0.92139 -5.754232,-1.37129 0.696296,-0.60152 1.39259,-1.20304 2.088888,-1.80455 z"
       id="path4183"
       inkscape:connector-curvature="0" />
    <text
       sodipodi:linespacing="121%"
       id="text4243"
       y="236.15594"
       x="7.1663828"
       style="color:#000000;font-style:italic;font-variant:normal;font-weight:normal;font-stretch:normal;font-size:29.75500107px;line-height:121.00000381%;font-family:'Comic Sans MS';-inkscape-font-specification:'Comic Sans MS, Italic';text-indent:0;text-align:start;text-decoration:none;text-decoration-line:none;letter-spacing:normal;word-spacing:normal;text-transform:none;direction:ltr;block-progression:tb;writing-mode:lr-tb;text-anchor:start;display:inline;overflow:visible;visibility:visible;opacity:1;fill:#204a87;fill-opacity:1;fill-rule:nonzero;stroke:none;stroke-width:1px;stroke-linecap:butt;stroke-linejoin:miter;stroke-miterlimit:4;stroke-dasharray:none;stroke-dashoffset:0;stroke-opacity:1;marker:none;marker-start:none;marker-mid:none;marker-end:none;enable-background:accumulate"
       xml:space="preserve"><tspan
         y="236.15594"
         x="7.1663828"
         id="tspan4245"
         sodipodi:role="line">log </tspan></text>
    <text
       sodipodi:linespacing="121%"
       id="text4257"
       y="283.09518"
       x="72.657204"
       style="color:#000000;font-style:italic;font-variant:normal;font-weight:normal;font-stretch:normal;font-size:21.25374985px;line-height:121.00000381%;font-family:'Comic Sans MS';-inkscape-font-specification:'Comic Sans MS, Italic';text-indent:0;text-align:start;text-decoration:none;text-decoration-line:none;letter-spacing:normal;word-spacing:normal;text-transform:none;direction:ltr;block-progression:tb;writing-mode:lr-tb;text-anchor:start;display:inline;overflow:visible;visibility:visible;opacity:1;fill:#edd400;fill-opacity:1;fill-rule:nonzero;stroke:none;stroke-width:1px;stroke-linecap:butt;stroke-linejoin:miter;stroke-miterlimit:4;stroke-dasharray:none;stroke-dashoffset:0;stroke-opacity:1;marker:none;marker-start:none;marker-mid:none;marker-end:none;enable-background:accumulate"
       xml:space="preserve"><tspan
         y="283.09518"
         x="72.657204"
         id="tspan4259"
         sodipodi:role="line">底</tspan></text>
    <path
       style="fill:none;fill-rule:evenodd;stroke:#edd400;stroke-width:1px;stroke-linecap:butt;stroke-linejoin:miter;stroke-opacity:1;marker-end:url(#Arrow1Mend)"
       d="M 71.418932,278.21216 55.820094,260.27337"
       id="path4261"
       inkscape:connector-curvature="0" />
  </g>
</svg>
